<svg width="717" height="585" viewBox="0 0 717 585" fill="none" xmlns="http://www.w3.org/2000/svg">
<path d="M296.75 185.062C291.529 185.062 286.521 187.137 282.829 190.829C279.137 194.521 277.062 199.529 277.062 204.75C277.062 209.971 279.137 214.979 282.829 218.671C286.521 222.363 291.529 224.438 296.75 224.438C299.335 224.438 301.895 223.928 304.284 222.939C306.673 221.949 308.843 220.499 310.671 218.671C312.499 216.843 313.949 214.673 314.939 212.284C315.928 209.895 316.438 207.335 316.438 204.75C316.438 202.165 315.928 199.605 314.939 197.216C313.949 194.827 312.499 192.657 310.671 190.829C308.843 189.001 306.673 187.551 304.284 186.561C301.895 185.572 299.335 185.062 296.75 185.062ZM391.25 185.062C386.029 185.062 381.021 187.137 377.329 190.829C373.637 194.521 371.562 199.529 371.562 204.75C371.562 209.971 373.637 214.979 377.329 218.671C381.021 222.363 386.029 224.438 391.25 224.438C396.471 224.438 401.479 222.363 405.171 218.671C408.863 214.979 410.938 209.971 410.938 204.75C410.938 199.529 408.863 194.521 405.171 190.829C401.479 187.137 396.471 185.062 391.25 185.062ZM344 31.5C323.317 31.5 302.836 35.5739 283.727 43.489C264.619 51.4041 247.256 63.0055 232.631 77.6307C203.094 107.168 186.5 147.228 186.5 189C186.5 230.772 203.094 270.832 232.631 300.369C247.256 314.995 264.619 326.596 283.727 334.511C302.836 342.426 323.317 346.5 344 346.5C385.772 346.5 425.832 329.906 455.369 300.369C484.906 270.832 501.5 230.772 501.5 189C501.5 168.317 497.426 147.836 489.511 128.727C481.596 109.619 469.995 92.2559 455.369 77.6307C440.744 63.0055 423.381 51.4041 404.273 43.489C385.164 35.5739 364.683 31.5 344 31.5ZM344 315C310.583 315 278.534 301.725 254.905 278.095C231.275 254.466 218 222.417 218 189C217.513 184.498 217.513 179.957 218 175.455C255.516 159.04 285.21 128.725 300.845 90.8775C315.37 111.46 334.624 128.253 356.988 139.847C379.353 151.44 404.174 157.494 429.365 157.5C441.335 157.5 453.147 156.082 464.802 153.405C484.49 220.5 446.375 290.272 379.595 309.802C367.625 313.267 355.97 315 344 315ZM155 31.5C155 23.1457 158.319 15.1335 164.226 9.22614C170.134 3.31874 178.146 0 186.5 0L249.5 0V31.5H186.5V94.5H155V31.5ZM533 346.5C533 354.854 529.681 362.866 523.774 368.774C517.866 374.681 509.854 378 501.5 378H438.5V346.5H501.5V283.5H533V346.5ZM186.5 378C178.146 378 170.134 374.681 164.226 368.774C158.319 362.866 155 354.854 155 346.5V283.5H186.5V346.5H249.5V378H186.5ZM501.5 0C509.854 0 517.866 3.31874 523.774 9.22614C529.681 15.1335 533 23.1457 533 31.5V94.5H501.5V31.5H438.5V0H501.5Z" fill="white"/>
<path d="M343.687 399.904L308.187 338.416L379.187 338.416L343.687 399.904Z" fill="white"/>
<ellipse cx="343.687" cy="416.801" rx="15.3328" ry="9.38742" fill="white"/>
<path d="M19.25 552H1.9375L39.6875 458.25H57.25L94.9375 552H77.625L69.0625 530.125H27.8125L19.25 552ZM33.25 515.688H63.625L48.4375 476.875L33.25 515.688ZM137.188 552H120.688V472.75H92.1875V458.25H165.625V472.75H137.188V552ZM213.812 552H197.312V472.75H168.812V458.25H242.25V472.75H213.812V552ZM252.188 552V458.25H311.625V472.75H268.688V497.438H309.125V511.875H268.688V537.5H312.25V552H252.188ZM412.312 552H393.688L344.812 483.812V552H328.312V458.25H346.938L395.812 526.5V458.25H412.312V552ZM428.938 552V458.25H458.438C469.812 458.25 479.646 460.146 487.938 463.938C496.229 467.729 502.625 473.146 507.125 480.188C511.625 487.188 513.875 495.5 513.875 505.125C513.875 514.708 511.625 523.021 507.125 530.062C502.625 537.104 496.229 542.521 487.938 546.312C479.646 550.104 469.812 552 458.438 552H428.938ZM445.438 537.5H459.062C467.104 537.5 473.938 536.25 479.562 533.75C485.229 531.208 489.542 527.521 492.5 522.688C495.5 517.854 497 512 497 505.125C497 498.25 495.5 492.396 492.5 487.562C489.542 482.729 485.229 479.062 479.562 476.562C473.938 474.021 467.104 472.75 459.062 472.75H445.438V537.5ZM543.438 458.25V552H526.938V458.25H543.438ZM560.062 552V458.25H617.938V472.75H576.562V497.438H615.438V511.875H576.562V552H560.062ZM679.062 552H662.562V511.938L626.812 458.25H646.875L670.812 497.625L694.875 458.25H714.875L679.062 512.062V552Z" fill="white"/>
</svg>
