<svg width="825" height="159" viewBox="0 0 825 159" fill="none" xmlns="http://www.w3.org/2000/svg">
<path d="M127.25 126H109.938L147.688 32.25H165.25L202.938 126H185.625L177.062 104.125H135.812L127.25 126ZM141.25 89.6875H171.625L156.438 50.875L141.25 89.6875ZM245.188 126H228.688V46.75H200.188V32.25H273.625V46.75H245.188V126ZM321.812 126H305.312V46.75H276.812V32.25H350.25V46.75H321.812V126ZM360.188 126V32.25H419.625V46.75H376.688V71.4375H417.125V85.875H376.688V111.5H420.25V126H360.188ZM520.312 126H501.688L452.812 57.8125V126H436.312V32.25H454.938L503.812 100.5V32.25H520.312V126ZM536.938 126V32.25H566.438C577.812 32.25 587.646 34.1458 595.938 37.9375C604.229 41.7292 610.625 47.1458 615.125 54.1875C619.625 61.1875 621.875 69.5 621.875 79.125C621.875 88.7083 619.625 97.0208 615.125 104.062C610.625 111.104 604.229 116.521 595.938 120.312C587.646 124.104 577.812 126 566.438 126H536.938ZM553.438 111.5H567.062C575.104 111.5 581.938 110.25 587.562 107.75C593.229 105.208 597.542 101.521 600.5 96.6875C603.5 91.8542 605 86 605 79.125C605 72.25 603.5 66.3958 600.5 61.5625C597.542 56.7292 593.229 53.0625 587.562 50.5625C581.938 48.0208 575.104 46.75 567.062 46.75H553.438V111.5ZM651.438 32.25V126H634.938V32.25H651.438ZM668.062 126V32.25H725.938V46.75H684.562V71.4375H723.438V85.875H684.562V126H668.062ZM787.062 126H770.562V85.9375L734.812 32.25H754.875L778.812 71.625L802.875 32.25H822.875L787.062 86.0625V126Z" fill="#961111"/>
<path d="M36 77C34.6739 77 33.4021 77.5268 32.4645 78.4645C31.5268 79.4021 31 80.6739 31 82C31 83.3261 31.5268 84.5979 32.4645 85.5355C33.4021 86.4732 34.6739 87 36 87C36.6566 87 37.3068 86.8707 37.9134 86.6194C38.52 86.3681 39.0712 85.9998 39.5355 85.5355C39.9998 85.0712 40.3681 84.52 40.6194 83.9134C40.8707 83.3068 41 82.6566 41 82C41 81.3434 40.8707 80.6932 40.6194 80.0866C40.3681 79.48 39.9998 78.9288 39.5355 78.4645C39.0712 78.0002 38.52 77.6319 37.9134 77.3806C37.3068 77.1293 36.6566 77 36 77ZM60 77C58.6739 77 57.4021 77.5268 56.4645 78.4645C55.5268 79.4021 55 80.6739 55 82C55 83.3261 55.5268 84.5979 56.4645 85.5355C57.4021 86.4732 58.6739 87 60 87C61.3261 87 62.5979 86.4732 63.5355 85.5355C64.4732 84.5979 65 83.3261 65 82C65 80.6739 64.4732 79.4021 63.5355 78.4645C62.5979 77.5268 61.3261 77 60 77ZM48 38C42.7471 38 37.5457 39.0346 32.6927 41.0448C27.8396 43.055 23.4301 46.0014 19.7157 49.7157C12.2143 57.2172 8 67.3913 8 78C8 88.6087 12.2143 98.7828 19.7157 106.284C23.4301 109.999 27.8396 112.945 32.6927 114.955C37.5457 116.965 42.7471 118 48 118C58.6087 118 68.7828 113.786 76.2843 106.284C83.7857 98.7828 88 88.6087 88 78C88 72.7471 86.9654 67.5457 84.9552 62.6927C82.945 57.8396 79.9986 53.4301 76.2843 49.7157C72.5699 46.0014 68.1604 43.055 63.3073 41.0448C58.4543 39.0346 53.2529 38 48 38ZM48 110C39.5131 110 31.3737 106.629 25.3726 100.627C19.3714 94.6263 16 86.4869 16 78C15.8764 76.8567 15.8764 75.7033 16 74.56C25.5278 70.3911 33.0692 62.692 37.04 53.08C40.7288 58.3072 45.6187 62.5723 51.2986 65.5166C56.9785 68.461 63.2823 69.9986 69.68 70C72.72 70 75.72 69.64 78.68 68.96C83.68 86 74 103.72 57.04 108.68C54 109.56 51.04 110 48 110ZM0 38C0 35.8783 0.842855 33.8434 2.34315 32.3431C3.84344 30.8429 5.87827 30 8 30H24V38H8V54H0V38ZM96 118C96 120.122 95.1571 122.157 93.6569 123.657C92.1566 125.157 90.1217 126 88 126H72V118H88V102H96V118ZM8 126C5.87827 126 3.84344 125.157 2.34315 123.657C0.842855 122.157 0 120.122 0 118V102H8V118H24V126H8ZM88 30C90.1217 30 92.1566 30.8429 93.6569 32.3431C95.1571 33.8434 96 35.8783 96 38V54H88V38H72V30H88Z" fill="#961111"/>
<path d="M47.5 130L38.4067 114.25L56.5933 114.25L47.5 130Z" fill="#961111"/>
<ellipse cx="47.5" cy="134.5" rx="4.5" ry="2.5" fill="#961111"/>
</svg>
