<svg width="40" height="40" viewBox="0 0 40 40" fill="none" xmlns="http://www.w3.org/2000/svg">
<g clip-path="url(#clip0_6012_457)">
<path d="M16.6667 18.3333V13.3333L25 19.9999L16.6667 26.6666V21.6666H1.66669V18.3333H16.6667ZM4.09669 24.9999H7.63669C8.8001 27.865 10.9229 30.2369 13.6419 31.7098C16.3609 33.1827 19.5072 33.6651 22.5426 33.0745C25.578 32.4839 28.3139 30.8569 30.2822 28.472C32.2506 26.087 33.3291 23.0922 33.3334 19.9999C33.3351 16.9044 32.2596 13.9046 30.2915 11.5153C28.3234 9.12594 25.5852 7.49585 22.5466 6.90461C19.5081 6.31337 16.3584 6.79782 13.638 8.27488C10.9175 9.75194 8.7958 12.1296 7.63669 14.9999H4.09669C6.22002 8.23825 12.5367 3.33325 20 3.33325C29.205 3.33325 36.6667 10.7949 36.6667 19.9999C36.6667 29.2049 29.205 36.6666 20 36.6666C12.5367 36.6666 6.22002 31.7616 4.09669 24.9999Z" fill="#969696"/>
</g>
<defs>
<clipPath id="clip0_6012_457">
<rect width="40" height="40" fill="white"/>
</clipPath>
</defs>
</svg>
