<svg width="36" height="34" viewBox="0 0 36 34" fill="none" xmlns="http://www.w3.org/2000/svg">
<path d="M15.6667 15.3333V10.3333L24 16.9999L15.6667 23.6666V18.6666H0.666687V15.3333H15.6667ZM3.09669 21.9999H6.63669C7.8001 24.865 9.92287 27.2369 12.6419 28.7098C15.3609 30.1827 18.5072 30.6651 21.5426 30.0745C24.578 29.4839 27.3139 27.8569 29.2822 25.472C31.2506 23.087 32.3291 20.0922 32.3334 16.9999C32.3351 13.9044 31.2596 10.9046 29.2915 8.51529C27.3234 6.12594 24.5852 4.49585 21.5466 3.90461C18.5081 3.31337 15.3584 3.79782 12.638 5.27488C9.91754 6.75194 7.7958 9.12955 6.63669 11.9999H3.09669C5.22002 5.23825 11.5367 0.333252 19 0.333252C28.205 0.333252 35.6667 7.79492 35.6667 16.9999C35.6667 26.2049 28.205 33.6666 19 33.6666C11.5367 33.6666 5.22002 28.7616 3.09669 21.9999Z" fill="#961111"/>
</svg>
