<svg width="40" height="40" viewBox="0 0 40 40" fill="none" xmlns="http://www.w3.org/2000/svg">
<g clip-path="url(#clip0_11_9885)">
<path d="M11.6666 8.33333V3.33333C11.6666 2.8913 11.8422 2.46738 12.1547 2.15482C12.4673 1.84226 12.8912 1.66666 13.3333 1.66666H26.6666C27.1086 1.66666 27.5325 1.84226 27.8451 2.15482C28.1577 2.46738 28.3333 2.8913 28.3333 3.33333V8.33333H34.9999C35.4419 8.33333 35.8659 8.50893 36.1784 8.82149C36.491 9.13405 36.6666 9.55797 36.6666 10V33.3333C36.6666 33.7754 36.491 34.1993 36.1784 34.5118C35.8659 34.8244 35.4419 35 34.9999 35H4.99992C4.55789 35 4.13397 34.8244 3.82141 34.5118C3.50885 34.1993 3.33325 33.7754 3.33325 33.3333V10C3.33325 9.55797 3.50885 9.13405 3.82141 8.82149C4.13397 8.50893 4.55789 8.33333 4.99992 8.33333H11.6666ZM26.6666 25H21.6666V26.6667H18.3333V25H13.3333V31.6667H26.6666V25ZM13.3333 11.6667V21.6667H18.3333V20H21.6666V21.6667H26.6666V11.6667H13.3333ZM9.99992 21.6667V11.6667H6.66659V21.6667H9.99992ZM29.9999 21.6667H33.3333V11.6667H29.9999V21.6667ZM9.99992 25H6.66659V31.6667H9.99992V25ZM29.9999 25V31.6667H33.3333V25H29.9999ZM14.9999 5V8.33333H24.9999V5H14.9999Z" fill="#961111"/>
</g>
<defs>
<clipPath id="clip0_11_9885">
<rect width="40" height="40" fill="white"/>
</clipPath>
</defs>
</svg>
