<svg width="40" height="40" viewBox="0 0 40 40" fill="none" xmlns="http://www.w3.org/2000/svg">
<g clip-path="url(#clip0_6011_268)">
<path d="M11.6667 8.33341V3.33341C11.6667 2.89139 11.8423 2.46746 12.1549 2.1549C12.4674 1.84234 12.8913 1.66675 13.3334 1.66675H26.6667C27.1087 1.66675 27.5327 1.84234 27.8452 2.1549C28.1578 2.46746 28.3334 2.89139 28.3334 3.33341V8.33341H35C35.4421 8.33341 35.866 8.50901 36.1786 8.82157C36.4911 9.13413 36.6667 9.55805 36.6667 10.0001V33.3334C36.6667 33.7754 36.4911 34.1994 36.1786 34.5119C35.866 34.8245 35.4421 35.0001 35 35.0001H5.00004C4.55801 35.0001 4.13409 34.8245 3.82153 34.5119C3.50897 34.1994 3.33337 33.7754 3.33337 33.3334V10.0001C3.33337 9.55805 3.50897 9.13413 3.82153 8.82157C4.13409 8.50901 4.55801 8.33341 5.00004 8.33341H11.6667ZM26.6667 25.0001H21.6667V26.6667H18.3334V25.0001H13.3334V31.6667H26.6667V25.0001ZM13.3334 11.6667V21.6667H18.3334V20.0001H21.6667V21.6667H26.6667V11.6667H13.3334ZM10 21.6667V11.6667H6.66671V21.6667H10ZM30 21.6667H33.3334V11.6667H30V21.6667ZM10 25.0001H6.66671V31.6667H10V25.0001ZM30 25.0001V31.6667H33.3334V25.0001H30ZM15 5.00008V8.33341H25V5.00008H15Z" fill="#A4A4A4"/>
</g>
<defs>
<clipPath id="clip0_6011_268">
<rect width="40" height="40" fill="white"/>
</clipPath>
</defs>
</svg>
