<svg width="20" height="20" viewBox="0 0 20 20" fill="none" xmlns="http://www.w3.org/2000/svg">
<path d="M14.5834 2.75008H18.25C18.4932 2.75008 18.7263 2.84666 18.8982 3.01857C19.0701 3.19048 19.1667 3.42363 19.1667 3.66675V18.3334C19.1667 18.5765 19.0701 18.8097 18.8982 18.9816C18.7263 19.1535 18.4932 19.2501 18.25 19.2501H1.75004C1.50693 19.2501 1.27377 19.1535 1.10186 18.9816C0.929951 18.8097 0.833374 18.5765 0.833374 18.3334V3.66675C0.833374 3.42363 0.929951 3.19048 1.10186 3.01857C1.27377 2.84666 1.50693 2.75008 1.75004 2.75008H5.41671V0.916748H7.25004V2.75008H12.75V0.916748H14.5834V2.75008ZM12.75 4.58341H7.25004V6.41675H5.41671V4.58341H2.66671V8.25008H17.3334V4.58341H14.5834V6.41675H12.75V4.58341ZM17.3334 10.0834H2.66671V17.4167H17.3334V10.0834ZM4.50004 12.8334H6.33337V14.6667H4.50004V12.8334ZM8.16671 12.8334H15.5V14.6667H8.16671V12.8334Z" fill="#A4A4A4"/>
</svg>
