<svg width="32" height="32" viewBox="0 0 32 32" fill="none" xmlns="http://www.w3.org/2000/svg">
<path fill-rule="evenodd" clip-rule="evenodd" d="M7.52456 2.66675C4.84521 2.66675 2.66663 4.8453 2.66663 7.52468V10.3416C2.66663 11.1306 3.30624 11.7702 4.09519 11.7702C4.88417 11.7702 5.52376 11.1306 5.52376 10.3416V7.52468C5.52376 6.42214 6.42203 5.52389 7.52456 5.52389H10.3415C11.1305 5.52389 11.7701 4.88429 11.7701 4.09532C11.7701 3.30636 11.1305 2.66675 10.3415 2.66675H7.52456ZM21.6584 2.66675C20.8694 2.66675 20.2298 3.30638 20.2298 4.09532C20.2298 4.88427 20.8694 5.52389 21.6584 5.52389H24.4754C25.5779 5.52389 26.4762 6.42215 26.4762 7.52468V10.3416C26.4762 11.1306 27.1157 11.7702 27.9047 11.7702C28.6938 11.7702 29.3333 11.1306 29.3333 10.3416V7.52468C29.3333 4.8453 27.1547 2.66675 24.4754 2.66675H21.6584ZM4.09519 20.2299C3.30626 20.2299 2.66663 20.8695 2.66663 21.6585V24.4755C2.66663 27.1549 4.84521 29.3334 7.52456 29.3334H10.3415C11.1305 29.3334 11.7701 28.6939 11.7701 27.9049C11.7701 27.1159 11.1305 26.4763 10.3415 26.4763H7.52456C6.42205 26.4763 5.52376 25.578 5.52376 24.4755V21.6585C5.52376 20.8695 4.88415 20.2299 4.09519 20.2299ZM27.9047 20.2299C27.1158 20.2299 26.4762 20.8695 26.4762 21.6585V24.4755C26.4762 25.578 25.5779 26.4763 24.4754 26.4763H21.6584C20.8694 26.4763 20.2298 27.1159 20.2298 27.9049C20.2298 28.6938 20.8694 29.3334 21.6584 29.3334H24.4754C27.1547 29.3334 29.3333 27.1549 29.3333 24.4755V21.6585C29.3333 20.8695 28.6937 20.2299 27.9047 20.2299Z" fill="#0D7EA2"/>
<path d="M10.6374 10.7336C10.1842 10.7336 9.81689 11.101 9.81689 11.5541V13.5346C9.81689 13.9877 10.1842 14.355 10.6374 14.355C11.0905 14.355 11.4578 13.9877 11.4578 13.5346V11.5541C11.4578 11.101 11.0905 10.7336 10.6374 10.7336Z" fill="#0D7EA2"/>
<path d="M15.8354 11.5927C15.8354 11.1182 16.2201 10.7336 16.6944 10.7336C17.1689 10.7336 17.5535 11.1182 17.5535 11.5927V16.531C17.5535 17.6004 16.6837 18.4702 15.6142 18.4702H15.0483C14.5739 18.4702 14.1893 18.0857 14.1893 17.6112C14.1893 17.1368 14.5739 16.7521 15.0483 16.7521H15.6142C15.736 16.7521 15.8354 16.6528 15.8354 16.531V11.5927Z" fill="#0D7EA2"/>
<path d="M21.5171 10.7336C21.0639 10.7336 20.6965 11.101 20.6965 11.5541V13.5346C20.6965 13.9877 21.0639 14.355 21.5171 14.355C21.9701 14.355 22.3375 13.9877 22.3375 13.5346V11.5541C22.3375 11.101 21.9701 10.7336 21.5171 10.7336Z" fill="#0D7EA2"/>
<path d="M19.5609 19.9895C19.9095 19.6675 20.453 19.6891 20.7748 20.0376C21.0968 20.3862 21.0752 20.9296 20.7267 21.2516C19.4363 22.4434 17.7576 23.0998 16.0001 23.0998C14.2426 23.0998 12.5638 22.4434 11.2734 21.2516C10.9249 20.9296 10.9034 20.3862 11.2253 20.0376C11.5473 19.6891 12.0907 19.6675 12.4392 19.9895C13.4113 20.8874 14.6757 21.3818 16.0001 21.3818C17.3245 21.3818 18.5889 20.8874 19.5609 19.9895Z" fill="#0D7EA2"/>
<path d="M10.6374 10.7336C10.1842 10.7336 9.81689 11.101 9.81689 11.5541V13.5346C9.81689 13.9877 10.1842 14.355 10.6374 14.355C11.0905 14.355 11.4578 13.9877 11.4578 13.5346V11.5541C11.4578 11.101 11.0905 10.7336 10.6374 10.7336Z" stroke="#0D7EA2" stroke-width="0.4"/>
<path d="M15.8354 11.5927C15.8354 11.1182 16.2201 10.7336 16.6944 10.7336C17.1689 10.7336 17.5535 11.1182 17.5535 11.5927V16.531C17.5535 17.6004 16.6837 18.4702 15.6142 18.4702H15.0483C14.5739 18.4702 14.1893 18.0857 14.1893 17.6112C14.1893 17.1368 14.5739 16.7521 15.0483 16.7521H15.6142C15.736 16.7521 15.8354 16.6528 15.8354 16.531V11.5927Z" stroke="#0D7EA2" stroke-width="0.4"/>
<path d="M21.5171 10.7336C21.0639 10.7336 20.6965 11.101 20.6965 11.5541V13.5346C20.6965 13.9877 21.0639 14.355 21.5171 14.355C21.9701 14.355 22.3375 13.9877 22.3375 13.5346V11.5541C22.3375 11.101 21.9701 10.7336 21.5171 10.7336Z" stroke="#0D7EA2" stroke-width="0.4"/>
<path d="M19.5609 19.9895C19.9095 19.6675 20.453 19.6891 20.7748 20.0376C21.0968 20.3862 21.0752 20.9296 20.7267 21.2516C19.4363 22.4434 17.7576 23.0998 16.0001 23.0998C14.2426 23.0998 12.5638 22.4434 11.2734 21.2516C10.9249 20.9296 10.9034 20.3862 11.2253 20.0376C11.5473 19.6891 12.0907 19.6675 12.4392 19.9895C13.4113 20.8874 14.6757 21.3818 16.0001 21.3818C17.3245 21.3818 18.5889 20.8874 19.5609 19.9895Z" stroke="#0D7EA2" stroke-width="0.4"/>
</svg>
